<svg width="474" height="467" viewBox="0 0 474 467" fill="none" xmlns="http://www.w3.org/2000/svg">
<path d="M452.376 466.433H20.1194C18.4647 466.433 17.1223 465.091 17.1223 463.436C17.1223 461.781 18.4647 460.439 20.1194 460.439H452.373C454.028 460.439 455.37 461.781 455.37 463.436C455.373 465.091 454.031 466.433 452.376 466.433Z" fill="#003C99"/>
<path d="M21.7387 142.38C21.7606 142.097 21.7743 141.815 21.7743 141.528C21.7743 135.514 16.9006 130.641 10.8872 130.641C4.87374 130.641 0 135.514 0 141.528C0 141.815 0.013691 142.1 0.0356077 142.38H21.7387Z" fill="#80B2FF"/>
<path d="M57.507 142.38C57.5289 142.097 57.5426 141.815 57.5426 141.528C57.5426 135.514 52.6689 130.641 46.6555 130.641C40.6421 130.641 35.7683 135.514 35.7683 141.528C35.7683 141.815 35.782 142.1 35.8039 142.38H57.507Z" fill="#80B2FF"/>
<path d="M66.7696 142.38C66.7997 142.1 66.8189 141.815 66.8189 141.528C66.8189 137.276 63.3725 133.829 59.1206 133.829C54.8688 133.829 51.4224 137.276 51.4224 141.528C51.4224 141.815 51.4388 142.1 51.4717 142.38H66.7696Z" fill="#80B2FF"/>
<path d="M44.9816 142.38C45.0665 141.714 45.1103 141.037 45.1103 140.35C45.1103 131.542 37.9682 124.4 29.1604 124.4C20.3526 124.4 13.2104 131.542 13.2104 140.35C13.2104 141.037 13.2543 141.714 13.3392 142.38H44.9816Z" fill="#80B2FF"/>
<path d="M290 17.98C290.022 17.6978 290.036 17.4157 290.036 17.128C290.036 11.1146 285.162 6.24084 279.148 6.24084C273.135 6.24084 268.261 11.1146 268.261 17.128C268.261 17.4157 268.275 17.7006 268.297 17.98H290Z" fill="#80B2FF"/>
<path d="M325.768 17.98C325.79 17.6978 325.804 17.4157 325.804 17.128C325.804 11.1146 320.93 6.24084 314.917 6.24084C308.903 6.24084 304.03 11.1146 304.03 17.128C304.03 17.4157 304.043 17.7006 304.065 17.98H325.768Z" fill="#80B2FF"/>
<path d="M313.246 17.98C313.33 17.3142 313.374 16.6376 313.374 15.9499C313.374 7.14213 306.232 0 297.424 0C288.617 0 281.474 7.14213 281.474 15.9499C281.474 16.6376 281.518 17.3142 281.603 17.98H313.246Z" fill="#80B2FF"/>
<path d="M232.803 142.993H228.879C228.589 142.993 228.353 142.758 228.353 142.467C228.353 142.177 228.589 141.941 228.879 141.941H232.803C233.093 141.941 233.329 142.177 233.329 142.467C233.329 142.758 233.093 142.993 232.803 142.993ZM224.959 142.993H221.036C220.746 142.993 220.51 142.758 220.51 142.467C220.51 142.177 220.746 141.941 221.036 141.941H224.959C225.249 141.941 225.485 142.177 225.485 142.467C225.485 142.758 225.249 142.993 224.959 142.993ZM217.113 142.993H213.19C212.899 142.993 212.664 142.758 212.664 142.467C212.664 142.177 212.899 141.941 213.19 141.941H217.113C217.403 141.941 217.639 142.177 217.639 142.467C217.639 142.758 217.403 142.993 217.113 142.993ZM209.269 142.993H205.346C205.056 142.993 204.82 142.758 204.82 142.467C204.82 142.177 205.056 141.941 205.346 141.941H209.269C209.56 141.941 209.795 142.177 209.795 142.467C209.795 142.758 209.56 142.993 209.269 142.993ZM201.423 142.993H197.5C197.21 142.993 196.974 142.758 196.974 142.467C196.974 142.177 197.21 141.941 197.5 141.941H201.423C201.714 141.941 201.949 142.177 201.949 142.467C201.949 142.758 201.714 142.993 201.423 142.993ZM193.58 142.993H189.657C189.366 142.993 189.131 142.758 189.131 142.467C189.131 142.177 189.366 141.941 189.657 141.941H193.58C193.87 141.941 194.106 142.177 194.106 142.467C194.103 142.758 193.87 142.993 193.58 142.993ZM185.734 142.993H181.81C181.52 142.993 181.284 142.758 181.284 142.467C181.284 142.177 181.52 141.941 181.81 141.941H185.734C186.024 141.941 186.26 142.177 186.26 142.467C186.26 142.758 186.024 142.993 185.734 142.993ZM177.89 142.993H173.967C173.677 142.993 173.441 142.758 173.441 142.467C173.441 142.177 173.677 141.941 173.967 141.941H177.89C178.18 141.941 178.416 142.177 178.416 142.467C178.413 142.758 178.18 142.993 177.89 142.993ZM170.044 142.993H166.121C165.83 142.993 165.595 142.758 165.595 142.467C165.595 142.177 165.83 141.941 166.121 141.941H170.044C170.334 141.941 170.57 142.177 170.57 142.467C170.57 142.758 170.334 142.993 170.044 142.993ZM162.2 142.993H158.277C157.987 142.993 157.751 142.758 157.751 142.467C157.751 142.177 157.987 141.941 158.277 141.941H162.2C162.491 141.941 162.726 142.177 162.726 142.467C162.724 142.758 162.491 142.993 162.2 142.993ZM154.354 142.993H150.431C150.141 142.993 149.905 142.758 149.905 142.467C149.905 142.177 150.141 141.941 150.431 141.941H154.354C154.645 141.941 154.88 142.177 154.88 142.467C154.88 142.758 154.645 142.993 154.354 142.993ZM146.511 142.993H142.588C142.297 142.993 142.062 142.758 142.062 142.467C142.062 142.177 142.297 141.941 142.588 141.941H146.511C146.801 141.941 147.037 142.177 147.037 142.467C147.034 142.758 146.798 142.993 146.511 142.993ZM138.665 142.993H134.741C134.451 142.993 134.215 142.758 134.215 142.467C134.215 142.177 134.451 141.941 134.741 141.941H138.665C138.955 141.941 139.191 142.177 139.191 142.467C139.191 142.758 138.955 142.993 138.665 142.993ZM130.818 142.993H126.895C126.605 142.993 126.369 142.758 126.369 142.467C126.369 142.177 126.605 141.941 126.895 141.941H130.818C131.109 141.941 131.344 142.177 131.344 142.467C131.344 142.758 131.109 142.993 130.818 142.993ZM122.975 142.993H119.052C118.761 142.993 118.526 142.758 118.526 142.467C118.526 142.177 118.761 141.941 119.052 141.941H122.975C123.265 141.941 123.501 142.177 123.501 142.467C123.501 142.758 123.265 142.993 122.975 142.993ZM115.129 142.993H111.206C110.915 142.993 110.68 142.758 110.68 142.467C110.68 142.177 110.915 141.941 111.206 141.941H115.129C115.419 141.941 115.655 142.177 115.655 142.467C115.655 142.758 115.419 142.993 115.129 142.993ZM107.285 142.993H103.362C103.072 142.993 102.836 142.758 102.836 142.467C102.836 142.177 103.072 141.941 103.362 141.941H107.285C107.576 141.941 107.811 142.177 107.811 142.467C107.811 142.758 107.576 142.993 107.285 142.993ZM99.439 142.993H95.5186C95.2282 142.993 94.9926 142.758 94.9926 142.467C94.9926 142.177 95.2282 141.941 95.5186 141.941H99.4417C99.7321 141.941 99.9677 142.177 99.9677 142.467C99.965 142.758 99.7294 142.993 99.439 142.993ZM91.5955 142.993H90.9572C89.7161 142.993 88.5217 142.555 87.5984 141.763C87.3793 141.574 87.3519 141.243 87.5409 141.024C87.7299 140.805 88.0614 140.777 88.2806 140.966C89.0148 141.596 89.9654 141.944 90.9572 141.944H91.5955C91.8859 141.944 92.1215 142.18 92.1215 142.47C92.1215 142.758 91.8859 142.993 91.5955 142.993ZM236.523 142.065C236.364 142.065 236.208 141.993 236.104 141.857C235.928 141.626 235.975 141.295 236.205 141.12C237.159 140.399 237.709 139.32 237.712 138.166C237.712 137.876 237.948 137.643 238.238 137.643C238.528 137.643 238.764 137.879 238.761 138.169C238.758 139.657 238.057 141.037 236.838 141.961C236.745 142.029 236.635 142.065 236.523 142.065ZM86.4396 138.413C86.1492 138.413 85.9136 138.177 85.9136 137.887V133.964C85.9136 133.673 86.1492 133.438 86.4396 133.438C86.73 133.438 86.9656 133.673 86.9656 133.964V137.887C86.9656 138.177 86.73 138.413 86.4396 138.413ZM238.238 134.769C237.948 134.769 237.712 134.534 237.712 134.243V130.32C237.712 130.03 237.948 129.794 238.238 129.794C238.528 129.794 238.764 130.03 238.764 130.32V134.243C238.764 134.534 238.528 134.769 238.238 134.769ZM86.4396 130.569C86.1492 130.569 85.9136 130.334 85.9136 130.043V126.12C85.9136 125.83 86.1492 125.594 86.4396 125.594C86.73 125.594 86.9656 125.83 86.9656 126.12V130.043C86.9656 130.334 86.73 130.569 86.4396 130.569ZM238.238 126.923C237.948 126.923 237.712 126.687 237.712 126.397V122.474C237.712 122.183 237.948 121.948 238.238 121.948C238.528 121.948 238.764 122.183 238.764 122.474V126.397C238.764 126.69 238.528 126.923 238.238 126.923ZM86.4396 122.723C86.1492 122.723 85.9136 122.488 85.9136 122.197V118.274C85.9136 117.984 86.1492 117.748 86.4396 117.748C86.73 117.748 86.9656 117.984 86.9656 118.274V122.197C86.9656 122.488 86.73 122.723 86.4396 122.723ZM238.238 119.079C237.948 119.079 237.712 118.844 237.712 118.553V114.63C237.712 114.34 237.948 114.104 238.238 114.104C238.528 114.104 238.764 114.34 238.764 114.63V118.553C238.764 118.844 238.528 119.079 238.238 119.079ZM86.4396 114.88C86.1492 114.88 85.9136 114.644 85.9136 114.354V110.431C85.9136 110.14 86.1492 109.905 86.4396 109.905C86.73 109.905 86.9656 110.14 86.9656 110.431V114.354C86.9656 114.644 86.73 114.88 86.4396 114.88ZM238.238 111.233C237.948 111.233 237.712 110.998 237.712 110.707V106.784C237.712 106.494 237.948 106.258 238.238 106.258C238.528 106.258 238.764 106.494 238.764 106.784V110.707C238.764 111 238.528 111.233 238.238 111.233ZM86.4396 107.033C86.1492 107.033 85.9136 106.798 85.9136 106.507V102.584C85.9136 102.294 86.1492 102.058 86.4396 102.058C86.73 102.058 86.9656 102.294 86.9656 102.584V106.507C86.9656 106.798 86.73 107.033 86.4396 107.033ZM238.238 103.39C237.948 103.39 237.712 103.154 237.712 102.864V98.9407C237.712 98.6503 237.948 98.4147 238.238 98.4147C238.528 98.4147 238.764 98.6503 238.764 98.9407V102.864C238.764 103.154 238.528 103.39 238.238 103.39ZM86.4396 99.1873C86.1492 99.1873 85.9136 98.9517 85.9136 98.6613V94.7382C85.9136 94.4478 86.1492 94.2122 86.4396 94.2122C86.73 94.2122 86.9656 94.4478 86.9656 94.7382V98.6613C86.9656 98.9544 86.73 99.1873 86.4396 99.1873ZM238.238 95.5436C237.948 95.5436 237.712 95.308 237.712 95.0176V91.0945C237.712 90.8041 237.948 90.5685 238.238 90.5685C238.528 90.5685 238.764 90.8041 238.764 91.0945V95.0176C238.764 95.308 238.528 95.5436 238.238 95.5436ZM86.4396 91.3438C86.1492 91.3438 85.9136 91.1082 85.9136 90.8178V86.8947C85.9136 86.6043 86.1492 86.3687 86.4396 86.3687C86.73 86.3687 86.9656 86.6043 86.9656 86.8947V90.8178C86.9656 91.1082 86.73 91.3438 86.4396 91.3438ZM238.238 87.7001C237.948 87.7001 237.712 87.4645 237.712 87.1742V83.251C237.712 82.9606 237.948 82.725 238.238 82.725C238.528 82.725 238.764 82.9606 238.764 83.251V87.1742C238.764 87.4645 238.528 87.7001 238.238 87.7001ZM86.4396 83.4976C86.1492 83.4976 85.9136 83.262 85.9136 82.9716V79.0512C85.9136 78.7608 86.1492 78.5252 86.4396 78.5252C86.73 78.5252 86.9656 78.7608 86.9656 79.0512V82.9743C86.9656 83.2647 86.73 83.4976 86.4396 83.4976ZM238.238 79.8539C237.948 79.8539 237.712 79.6183 237.712 79.3279V75.4076C237.712 75.1172 237.948 74.8816 238.238 74.8816C238.528 74.8816 238.764 75.1172 238.764 75.4076V79.3307C238.764 79.6183 238.528 79.8539 238.238 79.8539ZM86.4396 75.6541C86.1492 75.6541 85.9136 75.4185 85.9136 75.1281V71.205C85.9136 70.9146 86.1492 70.679 86.4396 70.679C86.73 70.679 86.9656 70.9146 86.9656 71.205V75.1281C86.9656 75.4185 86.73 75.6541 86.4396 75.6541ZM238.238 72.0105C237.948 72.0105 237.712 71.7749 237.712 71.4845V67.5614C237.712 67.271 237.948 67.0354 238.238 67.0354C238.528 67.0354 238.764 67.271 238.764 67.5614V71.4845C238.764 71.7749 238.528 72.0105 238.238 72.0105ZM86.4396 67.8079C86.1492 67.8079 85.9136 67.5723 85.9136 67.2819V63.3588C85.9136 63.0684 86.1492 62.8246 86.4396 62.8246C86.73 62.8246 86.9656 63.052 86.9656 63.3397V67.2792C86.9656 67.5751 86.73 67.8079 86.4396 67.8079ZM238.238 64.1643C237.948 64.1643 237.712 63.9287 237.712 63.6383V63.3588C237.712 62.2931 237.235 61.2712 236.402 60.5562C236.183 60.3672 236.159 60.0357 236.348 59.8165C236.537 59.5974 236.868 59.5727 237.087 59.7617C238.15 60.6768 238.761 61.989 238.761 63.3616V63.641C238.764 63.9287 238.528 64.1643 238.238 64.1643ZM88.1628 60.4987C88.0039 60.4987 87.845 60.4275 87.7436 60.2905C87.5683 60.0576 87.6149 59.7289 87.8477 59.5563C88.7436 58.8823 89.8175 58.5262 90.9572 58.5262H91.8859C92.1763 58.5262 92.4119 58.7618 92.4119 59.0522C92.4119 59.3426 92.1763 59.5782 91.8859 59.5782H90.9572C90.0476 59.5782 89.1901 59.8604 88.4806 60.3973C88.3819 60.4658 88.2724 60.4987 88.1628 60.4987ZM233.09 59.5754H229.167C228.877 59.5754 228.641 59.3398 228.641 59.0494C228.641 58.759 228.877 58.5234 229.167 58.5234H233.09C233.381 58.5234 233.616 58.759 233.616 59.0494C233.616 59.3398 233.381 59.5754 233.09 59.5754ZM225.247 59.5754H221.324C221.033 59.5754 220.798 59.3398 220.798 59.0494C220.798 58.759 221.033 58.5234 221.324 58.5234H225.247C225.537 58.5234 225.773 58.759 225.773 59.0494C225.773 59.3398 225.537 59.5754 225.247 59.5754ZM217.401 59.5754H213.477C213.187 59.5754 212.951 59.3398 212.951 59.0494C212.951 58.759 213.187 58.5234 213.477 58.5234H217.401C217.691 58.5234 217.927 58.759 217.927 59.0494C217.927 59.3398 217.691 59.5754 217.401 59.5754ZM209.557 59.5754H205.634C205.344 59.5754 205.108 59.3398 205.108 59.0494C205.108 58.759 205.344 58.5234 205.634 58.5234H209.557C209.847 58.5234 210.083 58.759 210.083 59.0494C210.083 59.3398 209.847 59.5754 209.557 59.5754ZM201.711 59.5754H197.788C197.497 59.5754 197.262 59.3398 197.262 59.0494C197.262 58.759 197.497 58.5234 197.788 58.5234H201.711C202.001 58.5234 202.237 58.759 202.237 59.0494C202.237 59.3398 202.001 59.5754 201.711 59.5754ZM193.867 59.5754H189.944C189.654 59.5754 189.418 59.3398 189.418 59.0494C189.418 58.759 189.654 58.5234 189.944 58.5234H193.867C194.158 58.5234 194.393 58.759 194.393 59.0494C194.393 59.3398 194.158 59.5754 193.867 59.5754ZM186.021 59.5754H182.098C181.808 59.5754 181.572 59.3398 181.572 59.0494C181.572 58.759 181.808 58.5234 182.098 58.5234H186.021C186.312 58.5234 186.547 58.759 186.547 59.0494C186.547 59.3398 186.312 59.5754 186.021 59.5754ZM178.178 59.5754H174.255C173.964 59.5754 173.729 59.3398 173.729 59.0494C173.729 58.759 173.964 58.5234 174.255 58.5234H178.178C178.468 58.5234 178.704 58.759 178.704 59.0494C178.704 59.3398 178.468 59.5754 178.178 59.5754ZM170.332 59.5754H166.408C166.118 59.5754 165.882 59.3398 165.882 59.0494C165.882 58.759 166.118 58.5234 166.408 58.5234H170.332C170.622 58.5234 170.858 58.759 170.858 59.0494C170.858 59.3398 170.622 59.5754 170.332 59.5754ZM162.488 59.5754H158.565C158.275 59.5754 158.039 59.3398 158.039 59.0494C158.039 58.759 158.275 58.5234 158.565 58.5234H162.488C162.778 58.5234 163.014 58.759 163.014 59.0494C163.011 59.3398 162.778 59.5754 162.488 59.5754ZM154.642 59.5754H150.719C150.428 59.5754 150.193 59.3398 150.193 59.0494C150.193 58.759 150.428 58.5234 150.719 58.5234H154.642C154.932 58.5234 155.168 58.759 155.168 59.0494C155.168 59.3398 154.932 59.5754 154.642 59.5754ZM146.798 59.5754H142.875C142.585 59.5754 142.349 59.3398 142.349 59.0494C142.349 58.759 142.585 58.5234 142.875 58.5234H146.798C147.089 58.5234 147.324 58.759 147.324 59.0494C147.322 59.3398 147.089 59.5754 146.798 59.5754ZM138.952 59.5754H135.029C134.739 59.5754 134.503 59.3398 134.503 59.0494C134.503 58.759 134.739 58.5234 135.029 58.5234H138.952C139.243 58.5234 139.478 58.759 139.478 59.0494C139.478 59.3398 139.243 59.5754 138.952 59.5754ZM131.109 59.5754H127.186C126.895 59.5754 126.66 59.3398 126.66 59.0494C126.66 58.759 126.895 58.5234 127.186 58.5234H131.109C131.399 58.5234 131.635 58.759 131.635 59.0494C131.632 59.3398 131.399 59.5754 131.109 59.5754ZM123.263 59.5754H119.339C119.049 59.5754 118.813 59.3398 118.813 59.0494C118.813 58.759 119.049 58.5234 119.339 58.5234H123.263C123.553 58.5234 123.789 58.759 123.789 59.0494C123.789 59.3398 123.553 59.5754 123.263 59.5754ZM115.419 59.5754H111.496C111.206 59.5754 110.97 59.3398 110.97 59.0494C110.97 58.759 111.206 58.5234 111.496 58.5234H115.419C115.709 58.5234 115.945 58.759 115.945 59.0494C115.942 59.3398 115.707 59.5754 115.419 59.5754ZM107.573 59.5754H103.65C103.359 59.5754 103.124 59.3398 103.124 59.0494C103.124 58.759 103.359 58.5234 103.65 58.5234H107.573C107.863 58.5234 108.099 58.759 108.099 59.0494C108.099 59.3398 107.863 59.5754 107.573 59.5754ZM99.7266 59.5754H95.8035C95.5131 59.5754 95.2775 59.3398 95.2775 59.0494C95.2775 58.759 95.5131 58.5234 95.8035 58.5234H99.7266C100.017 58.5234 100.253 58.759 100.253 59.0494C100.253 59.3398 100.017 59.5754 99.7266 59.5754Z" fill="#C0DAFF"/>
<path d="M243.701 130.271H104.244C101.307 130.271 98.9294 127.89 98.9294 124.956V45.8282C98.9294 42.8914 101.31 40.5134 104.244 40.5134H243.701C246.638 40.5134 249.016 42.8941 249.016 45.8282V124.956C249.018 127.89 246.638 130.271 243.701 130.271Z" fill="#66A2FF"/>
<path d="M249.018 57.4633H98.9294V72.9529H249.018V57.4633Z" fill="#0046B3"/>
<path d="M133.308 113.05H111.241C109.838 113.05 108.701 114.187 108.701 115.589C108.701 116.992 109.838 118.129 111.241 118.129H133.308C134.711 118.129 135.848 116.992 135.848 115.589C135.848 114.187 134.711 113.05 133.308 113.05Z" fill="#D1F5FF"/>
<path d="M167.244 113.05H145.177C143.774 113.05 142.637 114.187 142.637 115.589C142.637 116.992 143.774 118.129 145.177 118.129H167.244C168.647 118.129 169.784 116.992 169.784 115.589C169.784 114.187 168.647 113.05 167.244 113.05Z" fill="#D1F5FF"/>
<path d="M201.179 113.05H179.112C177.709 113.05 176.572 114.187 176.572 115.589C176.572 116.992 177.709 118.129 179.112 118.129H201.179C202.582 118.129 203.719 116.992 203.719 115.589C203.719 114.187 202.582 113.05 201.179 113.05Z" fill="#D1F5FF"/>
<path d="M235.118 113.05H213.05C211.647 113.05 210.51 114.187 210.51 115.589C210.51 116.992 211.647 118.129 213.05 118.129H235.118C236.52 118.129 237.657 116.992 237.657 115.589C237.657 114.187 236.52 113.05 235.118 113.05Z" fill="#D1F5FF"/>
<path d="M110.225 45.0665C108.677 45.0665 107.422 46.3213 107.422 47.8691V48.8527C107.422 50.4005 108.677 51.6553 110.225 51.6553C111.773 51.6553 113.027 50.4005 113.027 48.8527V47.8691C113.027 46.3213 111.773 45.0665 110.225 45.0665Z" fill="#D1F5FF"/>
<path d="M116.263 48.3623C116.263 50.1813 117.739 51.658 119.558 51.658H131.24C133.059 51.658 134.536 50.1813 134.536 48.3623C134.536 46.5432 133.059 45.0665 131.24 45.0665H119.558C117.739 45.0665 116.263 46.5432 116.263 48.3623Z" fill="#D1F5FF"/>
<path d="M114.731 81.2841H129.818C132.237 81.2841 134.196 83.2429 134.196 85.6619V98.6695C134.196 101.089 132.237 103.047 129.818 103.047H114.731C112.312 103.047 110.354 101.089 110.354 98.6695V85.6619C110.354 83.2429 112.312 81.2841 114.731 81.2841Z" fill="#FF9F34"/>
<path d="M407.877 111.992C409.638 105.045 409.926 98.0257 408.92 91.3356L411.046 91.0178L415.243 90.3904L415.296 90.3794C414.156 82.7223 411.54 75.4212 407.622 68.8763L402.093 72.1693C398.546 66.2491 393.869 61 388.209 56.8413L392.047 51.6552C386.064 47.1869 379.097 43.8063 371.413 41.8584L369.826 48.1184C362.854 46.3514 355.86 46.0692 349.17 47.0746L348.211 40.6996C340.554 41.8365 333.247 44.4775 326.708 48.3732L330.001 53.9017C324.078 57.4495 318.832 62.126 314.67 67.7832L309.484 63.9451C305.016 69.9283 301.635 76.8951 299.687 84.5797L305.947 86.1659C304.18 93.1382 303.895 100.132 304.901 106.823L300.389 107.496L298.548 107.787L298.523 107.781C299.663 115.439 302.301 122.745 306.197 129.284L311.725 125.991C315.273 131.912 319.971 137.166 325.631 141.328L321.793 146.514C327.779 150.982 334.721 154.357 342.406 156.305L343.992 150.045C350.964 151.812 357.983 152.103 364.673 151.097L365.41 156.053L365.632 157.472C373.289 156.335 380.574 153.686 387.113 149.793L383.82 144.265C389.741 140.717 394.995 136.018 399.178 130.364L404.365 134.202C408.811 128.211 412.186 121.268 414.131 113.584L407.877 111.992ZM349.901 126.753C334.606 122.877 325.363 107.359 329.239 92.0643C333.11 76.791 348.625 67.5504 363.923 71.4269C379.196 75.298 388.437 90.8123 384.568 106.086C380.689 121.381 365.172 130.621 349.901 126.753Z" stroke="#B3D1FF" stroke-width="1.09584" stroke-miterlimit="10" stroke-linejoin="round"/>
<path d="M432.476 169.236C430.125 166.283 427.276 163.927 424.15 162.217L424.692 161.225L425.766 159.267L425.777 159.242C422.205 157.28 418.312 156.05 414.317 155.607L413.937 158.974C410.326 158.574 406.636 158.861 403.088 159.908L402.137 156.648C398.357 157.732 394.721 159.573 391.456 162.176L393.573 164.836C390.612 167.195 388.264 170.036 386.552 173.162L383.574 171.532C381.609 175.104 380.39 179.008 379.938 182.992L383.305 183.372C382.905 186.986 383.193 190.673 384.239 194.221L380.979 195.172C382.064 198.952 383.905 202.588 386.508 205.854L389.168 203.736C391.527 206.697 394.368 209.045 397.494 210.757L396.337 212.864L395.872 213.727L395.861 213.735C399.433 215.697 403.337 216.919 407.321 217.371L407.701 214.004C411.312 214.404 415.013 214.108 418.561 213.061L419.512 216.322C423.292 215.237 426.92 213.401 430.182 210.801L428.065 208.141C431.026 205.782 433.385 202.933 435.095 199.807L437.407 201.078L438.073 201.437C440.037 197.865 441.248 193.969 441.697 189.986L438.33 189.605C438.73 185.994 438.434 182.293 437.399 178.737L440.659 177.786C439.566 174.014 437.73 170.387 435.13 167.124L432.476 169.236ZM420.191 198.237C413.693 203.413 404.244 202.344 399.069 195.846C393.902 189.358 394.97 179.91 401.469 174.732C407.956 169.565 417.405 170.633 422.575 177.123C427.75 183.622 426.679 193.071 420.191 198.237Z" stroke="#B3D1FF" stroke-width="1.09584" stroke-miterlimit="10" stroke-linejoin="round"/>
<path d="M192.473 324.229C189.761 320.823 186.471 318.1 182.865 316.128L183.493 314.983L184.734 312.722L184.747 312.692C180.624 310.427 176.131 309.007 171.523 308.498L171.082 312.383C166.915 311.922 162.655 312.254 158.562 313.462L157.466 309.698C153.105 310.95 148.908 313.076 145.141 316.076L147.585 319.144C144.166 321.867 141.456 325.146 139.484 328.752L136.048 326.872C133.783 330.995 132.375 335.499 131.854 340.096L135.739 340.538C135.276 344.707 135.61 348.965 136.818 353.057L133.054 354.153C134.306 358.515 136.432 362.712 139.432 366.479L142.5 364.035C145.223 367.454 148.503 370.164 152.108 372.136L150.774 374.566L150.237 375.563L150.226 375.571C154.349 377.837 158.853 379.245 163.45 379.766L163.891 375.881C168.058 376.344 172.329 376.002 176.422 374.793L177.518 378.558C181.879 377.306 186.065 375.188 189.832 372.188L187.388 369.12C190.807 366.397 193.528 363.109 195.5 359.504L198.169 360.969L198.936 361.383C201.201 357.26 202.599 352.764 203.119 348.17L199.234 347.729C199.695 343.562 199.355 339.291 198.158 335.19L201.922 334.094C200.659 329.741 198.541 325.555 195.541 321.788L192.473 324.229ZM178.296 357.698C170.797 363.671 159.894 362.438 153.919 354.937C147.955 347.45 149.19 336.546 156.688 330.574C164.176 324.609 175.079 325.845 181.043 333.332C187.019 340.831 185.783 351.734 178.296 357.698Z" stroke="#003880" stroke-width="1.09584" stroke-miterlimit="10"/>
<path d="M356.673 98.5215C353.63 80.5005 325.878 72.3639 326.42 84.125L199.193 84.8701C190.38 84.9222 183.235 92.8506 183.23 102.584L182.967 437.191C182.958 447.278 190.229 455.524 199.21 455.601L329.088 456.716C329.894 458.409 331.403 459.948 333.781 461.236C348.677 461.554 355.819 454.198 358.43 445.881C359.279 443.648 359.742 441.182 359.72 438.582C359.199 434.226 357.616 102.746 356.673 98.5215Z" fill="#66A2FF"/>
<path d="M332.39 461.288L183.309 460.327C174.005 460.266 166.482 451.795 166.499 441.418L167.058 97.3052C167.074 87.2975 174.479 79.1663 183.602 79.1389L329.787 78.665C338.981 78.6349 346.501 86.7523 346.578 96.8066L349.227 442.511C349.309 452.938 341.77 461.348 332.39 461.288Z" fill="white"/>
<path d="M334.45 458.787C333.831 458.869 333.198 458.91 332.565 458.905L183.528 457.776C175.534 457.716 169 450.289 169.014 441.231L169.529 97.4969C169.543 88.7603 175.973 81.6292 183.813 81.5963L329.99 80.9607C330.217 80.9607 330.45 80.9634 330.678 80.9744C334.357 81.1443 337.792 82.8209 340.362 85.6892C342.989 88.6206 344.45 92.5054 344.48 96.6339L347.093 442.689C347.159 450.886 341.74 457.809 334.45 458.787Z" fill="black"/>
<path d="M339.354 98.3708L341.869 443.22L173.972 442.215L174.403 98.3708H339.354Z" fill="#0050CC"/>
<path d="M280.94 271.9H235.994C232.192 271.9 229.08 268.787 229.08 264.985C229.08 261.182 232.192 258.07 235.994 258.07H280.94C284.743 258.07 287.855 261.182 287.855 264.985C287.855 268.787 284.745 271.9 280.94 271.9Z" fill="#FF9F34"/>
<path d="M315.133 220.565H198.914C195.111 220.565 191.999 217.453 191.999 213.65C191.999 209.848 195.111 206.736 198.914 206.736H315.133C318.936 206.736 322.048 209.848 322.048 213.65C322.048 217.456 318.936 220.565 315.133 220.565Z" fill="white"/>
<path d="M315.133 242.838H198.914C195.111 242.838 191.999 239.726 191.999 235.923C191.999 232.121 195.111 229.009 198.914 229.009H315.133C318.936 229.009 322.048 232.121 322.048 235.923C322.048 239.726 318.936 242.838 315.133 242.838Z" fill="white"/>
<path d="M220.617 236.534C220.617 237.879 219.527 238.97 218.182 238.97C216.836 238.97 215.746 237.879 215.746 236.534C215.746 235.189 216.836 234.099 218.182 234.099C219.527 234.101 220.617 235.192 220.617 236.534Z" fill="#80B2FF"/>
<path d="M228.895 237.044C229.175 235.728 228.335 234.435 227.02 234.155C225.704 233.875 224.411 234.715 224.131 236.031C223.851 237.346 224.691 238.64 226.007 238.919C227.322 239.199 228.616 238.359 228.895 237.044Z" fill="#80B2FF"/>
<path d="M236.591 238.257C237.542 237.306 237.542 235.764 236.591 234.813C235.64 233.862 234.098 233.862 233.147 234.813C232.196 235.764 232.196 237.306 233.147 238.257C234.098 239.209 235.64 239.209 236.591 238.257Z" fill="#80B2FF"/>
<path d="M244.938 238.257C245.889 237.306 245.889 235.764 244.938 234.813C243.987 233.862 242.445 233.862 241.494 234.813C240.543 235.764 240.543 237.306 241.494 238.257C242.445 239.208 243.987 239.208 244.938 238.257Z" fill="#80B2FF"/>
<path d="M252.514 238.785C253.756 238.271 254.347 236.846 253.832 235.603C253.317 234.36 251.892 233.77 250.65 234.285C249.407 234.8 248.817 236.225 249.331 237.467C249.846 238.71 251.271 239.3 252.514 238.785Z" fill="#80B2FF"/>
<path d="M262.285 237.13C262.594 235.821 261.783 234.509 260.474 234.2C259.165 233.891 257.853 234.701 257.544 236.01C257.235 237.319 258.046 238.631 259.355 238.94C260.664 239.249 261.976 238.439 262.285 237.13Z" fill="#80B2FF"/>
<path d="M269.978 238.257C270.929 237.306 270.929 235.764 269.978 234.813C269.027 233.862 267.485 233.862 266.534 234.813C265.583 235.764 265.583 237.306 266.534 238.257C267.485 239.208 269.027 239.208 269.978 238.257Z" fill="#80B2FF"/>
<path d="M278.325 238.257C279.276 237.305 279.276 235.763 278.325 234.812C277.374 233.861 275.832 233.861 274.881 234.812C273.93 235.763 273.93 237.305 274.881 238.257C275.832 239.208 277.374 239.208 278.325 238.257Z" fill="#80B2FF"/>
<path d="M285.899 238.786C287.142 238.271 287.732 236.846 287.217 235.603C286.703 234.361 285.278 233.77 284.035 234.285C282.792 234.8 282.202 236.225 282.717 237.467C283.232 238.71 284.656 239.3 285.899 238.786Z" fill="#80B2FF"/>
<path d="M275.951 179.563C286.385 169.13 286.385 152.214 275.951 141.781C265.518 131.347 248.602 131.347 238.169 141.781C227.736 152.214 227.736 169.13 238.169 179.563C248.602 189.997 265.518 189.997 275.951 179.563Z" fill="white"/>
<path d="M257.103 159.596C259.711 159.596 262.119 158.324 263.656 156.385C264.793 154.979 265.462 153.174 265.462 151.169C265.462 146.555 261.717 142.742 257.1 142.742C252.418 142.742 248.673 146.555 248.673 151.169C248.673 153.177 249.342 154.982 250.479 156.385C252.018 158.327 254.426 159.596 257.103 159.596Z" fill="#005CEA"/>
<path d="M271.911 174.614C271.911 179.932 242.213 179.932 242.213 174.614L242.222 168.417C243.394 159.944 269.497 159.59 271.916 168.417L271.911 174.614Z" fill="#005CEA"/>
<path d="M204.678 234.647V234.277C204.678 232.775 203.459 231.556 201.958 231.556C200.457 231.556 199.237 232.778 199.237 234.277V234.647H198.824V239.551C198.824 240.397 205.108 240.397 205.108 239.551V234.647H204.678ZM200.207 234.277C200.207 233.334 200.788 232.48 201.958 232.48C203.128 232.48 203.728 233.28 203.728 234.277V234.647H200.207V234.277ZM202.421 237.118V238.534C202.421 238.789 202.202 238.97 201.947 238.97C201.692 238.97 201.511 238.789 201.511 238.534V237.118C201.256 236.973 201.076 236.718 201.076 236.392C201.076 235.921 201.476 235.521 201.947 235.521C202.421 235.521 202.818 235.921 202.818 236.392C202.821 236.718 202.637 236.973 202.421 237.118Z" fill="#4D4D4D"/>
<path d="M201.966 213.149C202.517 213.149 203.023 212.881 203.349 212.472C203.591 212.176 203.73 211.796 203.73 211.371C203.73 210.398 202.939 209.593 201.966 209.593C200.977 209.593 200.188 210.398 200.188 211.371C200.188 211.796 200.328 212.176 200.569 212.472C200.892 212.881 201.399 213.149 201.966 213.149Z" fill="#4D4D4D"/>
<path d="M205.089 216.319C205.089 217.442 198.791 217.442 198.791 216.319L198.824 215.012C199.07 213.223 204.58 213.149 205.089 215.012V216.319Z" fill="#4D4D4D"/>
<path d="M242.674 215.68H217.204C216.089 215.68 215.174 214.768 215.174 213.65C215.174 212.535 216.086 211.62 217.204 211.62H242.674C243.789 211.62 244.704 212.533 244.704 213.65C244.704 214.768 243.789 215.68 242.674 215.68Z" fill="#80B2FF"/>
<path d="M276.264 215.68H250.794C249.679 215.68 248.764 214.768 248.764 213.65C248.764 212.535 249.676 211.62 250.794 211.62H276.264C277.379 211.62 278.294 212.533 278.294 213.65C278.294 214.768 277.382 215.68 276.264 215.68Z" fill="#80B2FF"/>
<path d="M222.773 343.239V393.62C222.773 399.22 291.277 399.22 291.277 393.62V343.239H222.773Z" fill="white"/>
<path d="M265.25 364.252C266.323 359.706 263.509 355.151 258.963 354.078C254.418 353.004 249.862 355.819 248.789 360.365C247.716 364.91 250.531 369.465 255.076 370.539C259.622 371.612 264.177 368.797 265.25 364.252Z" fill="#005CEA"/>
<path d="M257.023 387.738C255.108 387.738 253.558 386.185 253.558 384.272V364.873H260.492V384.272C260.492 386.185 258.938 387.738 257.023 387.738Z" fill="#005CEA"/>
<path d="M285.271 339.647H278.338V336.256C278.338 324.503 268.776 314.939 257.023 314.939C245.271 314.939 235.707 324.5 235.707 336.256V339.647H228.773V336.256C228.773 320.678 241.446 308.008 257.021 308.008C272.595 308.008 285.269 320.681 285.269 336.256V339.647H285.271Z" fill="white"/>
<path d="M314.311 282.481C314.311 282.212 314.314 282.094 314.314 282.069C314.311 282.119 314.311 282.481 314.311 282.481Z" fill="#D9FFFF"/>
<path d="M314.311 282.481C314.311 282.212 314.314 282.094 314.314 282.069C314.311 282.119 314.311 282.481 314.311 282.481Z" fill="#D9FFFF"/>
<path d="M473.857 283.196C473.857 283.196 473.86 282.834 473.86 282.784C473.857 282.809 473.857 282.927 473.857 283.196Z" fill="#D9FFFF"/>
<path d="M473.857 283.196C473.857 283.196 473.86 282.834 473.86 282.784C473.857 282.809 473.857 282.927 473.857 283.196Z" fill="#D9FFFF"/>
<path d="M394.379 244.989C376.717 263.906 348.537 279.412 318.38 286.017C318.371 288.03 318.322 299.189 318.092 350.622C317.785 419.232 383.081 452.76 393.22 457.905C403.041 453.384 469.162 419.909 469.468 351.299C469.698 299.865 469.748 288.707 469.756 286.694C439.659 279.82 411.871 264.064 394.379 244.989Z" fill="white"/>
<path d="M394.22 252.429C376.013 269.13 350.789 282.258 323.053 289.414L322.779 350.611C322.653 378.612 333.779 403.943 355.844 425.906C370.342 440.336 385.585 449.286 393.321 453.308C393.653 453.138 394.02 452.949 394.379 452.762V252.575C394.327 252.525 394.272 252.479 394.22 252.429Z" fill="#80B2FF"/>
<path d="M394.379 252.572V452.76C402.422 448.576 417.041 439.927 431.043 426.24C453.302 404.477 464.655 379.248 464.778 351.244L465.052 290.047C437.459 282.669 412.422 269.368 394.379 252.572Z" fill="#4D93FF"/>
<path d="M449.952 313.911C428.835 317.169 400.083 336.425 381.941 359.583C379.396 348.663 367.975 338.697 362 336.516L343.894 354.715C355.197 359.811 367.553 374.243 369.188 389.02L387.275 391.823C394.899 376.761 414.594 340.729 453.773 321.358C453.023 318.41 450.256 314.333 449.952 313.911Z" fill="#0046B3"/>
<path d="M105.979 204.051L102.795 216.85L102.217 219.231C101.573 222.255 81.6018 220.968 83.0182 217.431L84.2072 214.826L90.3494 201.35L105.979 204.051Z" fill="#F7A58E"/>
<path d="M117.655 185.065C117.858 198.944 111.417 210.231 101.335 210.182C91.2533 210.133 81.5003 201.58 81.1469 184.89C80.9223 174.258 89.4123 165.672 99.494 165.721C109.576 165.768 117.499 174.43 117.655 185.065Z" fill="#F7A58E"/>
<path d="M99.7953 161.902C99.7953 161.902 119.885 162.894 121.556 178.11C123.786 191.462 113.767 181.646 109.677 190.608C104.992 200.873 109.767 208.385 115.855 210.423C110.441 217.982 79.4867 217.71 71.5227 204.448C66.0682 187.816 73.7883 162.825 99.7953 161.902Z" fill="black"/>
<path d="M113.882 190.06C114.049 192.12 112.515 193.925 110.455 194.092C108.395 194.26 106.589 192.725 106.422 190.665C106.255 188.605 107.789 186.8 109.85 186.632C111.91 186.465 113.715 188 113.882 190.06Z" fill="#F7A58E"/>
<path d="M110.806 448.261C111.748 447.264 116.189 447.248 116.595 448.724C117 450.198 116.216 451.253 118.093 453.592C117.014 453.905 113.189 453.932 112.017 453.592C110.844 453.25 109.863 449.258 110.806 448.261Z" fill="white"/>
<path d="M103.466 453.302H114.291C115.302 407.496 115.11 357.633 114.745 320.078C114.614 306.63 114.244 299.827 111.806 291.754C106.88 275.45 83.7167 280.469 82.073 295.247C81.3881 303.446 80.8867 319.445 96.0476 373.81C89.4808 397.743 100.932 426.443 103.466 453.302Z" fill="#00050D"/>
<path d="M120.353 454.001C118.759 453.916 115.036 452.382 114.334 451.321C113.299 452.477 111.146 452.798 108.546 452.409C105.475 451.951 105.069 450.524 102.866 450.713C101.938 453.297 99.6748 459.091 101.858 460.436C101.858 460.436 114.767 460.436 124.616 460.436C126.646 458.581 126.591 454.623 120.353 454.001Z" fill="white"/>
<path d="M55.696 449.42C56.4878 448.582 60.2219 448.568 60.5616 449.809C60.9013 451.047 60.2438 451.935 61.819 453.899C60.9122 454.162 57.696 454.184 56.7124 453.899C55.7289 453.612 54.9043 450.258 55.696 449.42Z" fill="white"/>
<path d="M91.3685 294.83C89.1549 277.943 59.1124 279.677 57.1153 294.422C56.3948 302.356 54.1894 314.298 59.8357 373.232C47.9267 395.721 51.2909 427.994 47.7321 451.749C47.3404 455.362 57.5783 456.231 58.3728 453.009C69.2846 408.934 84.5304 359.487 90.1987 322.821C92.2561 309.531 92.4643 303.194 91.3685 294.83Z" fill="#00050D"/>
<path d="M63.7505 453.302C62.156 453.217 59.8054 451.143 59.1041 450.083C58.0685 451.239 56.0933 452.798 53.4934 452.409C50.4223 451.951 50.0168 450.524 47.8142 450.713C46.8855 453.297 44.6226 459.091 46.806 460.436C46.806 460.436 59.0931 460.436 68.9447 460.436C70.9748 458.581 69.9885 453.924 63.7505 453.302Z" fill="white"/>
<path d="M142.034 205.445L136.432 206.689C136.558 209.637 136.205 214.346 136.432 219.546L145.856 218.305C144.421 213.067 143.037 208.478 142.034 205.445Z" fill="#F7A58E"/>
<path d="M136.432 219.543C136.224 229.847 135.947 234.263 135.862 238.321L107.902 220.387C99.3816 217.801 89.4451 234.666 100.22 242.274C100.22 242.274 137.457 263.3 145.834 257.243C150.365 253.966 149.19 230.463 145.859 218.3L136.432 219.543Z" fill="white"/>
<path d="M144.566 199.963C141.977 196.928 136.292 197.985 135.859 198.068L136.407 206.464C136.533 210.612 141.678 210.752 143.771 207.177C143.774 207.179 146.81 202.952 144.566 199.963Z" fill="#F7A58E"/>
<path d="M138.613 198.862C136.725 189.715 134.821 190.939 134.821 190.939C134.821 190.939 135.125 194.172 135.98 199.876C136.618 203.108 138.846 201.158 138.613 198.862Z" fill="#F7A58E"/>
<path d="M114.507 244.49C116.406 235.249 117.425 226.126 107.899 220.39C102.253 216.987 84.1031 214.56 75.6158 217.368C67.0655 221.19 68.9147 237.857 67.3121 264.179C61.4192 277.316 58.8577 281.631 57.1125 294.425C57.1125 294.425 60.2658 304.065 82.4757 304.076C92.5602 304.082 107.414 303.186 114.17 298.041C113.496 289.315 109.847 280.91 108.327 268.557C108.329 268.557 114.37 245.55 114.507 244.49Z" fill="white"/>
<path d="M71.0567 219.225C60.6326 227.184 50.4659 239.698 45.6607 246.345C40.8554 252.991 28.4094 279.699 28.4094 279.699L36.3296 285.54L57.756 256.347L83.9301 234.877C93.0146 225.606 81.2097 211.475 71.0567 219.225Z" fill="white"/>
<path d="M25.0891 286.474L30.2231 275.867C31.4313 279.055 37.3077 281.968 38.9953 281.905C38.9953 281.905 33.475 289.849 32.1244 291.2C30.7765 292.548 25.2014 290.263 25.0891 286.474Z" fill="#F7A58E"/>
<path d="M33.4257 289.428C33.4066 289.507 33.4285 289.614 33.4066 289.693C33.149 293.553 30.1821 295.381 29.3794 295.814C29.3163 295.866 29.2451 295.879 29.1739 295.896C31.9655 295.337 32.8011 299.077 31.382 299.939C27.2753 302.72 21.4208 298.896 20.925 296.575C20.4209 294.219 25.1001 286.431 25.1001 286.431C27.4863 284.502 33.5956 284.8 33.4257 289.428Z" fill="#F7A58E"/>
<path d="M33.4093 289.691C33.2449 294.052 29.3136 295.849 29.2396 295.863C26.9384 295.8 26.1192 295.66 23.9248 295.666C25.3576 294.967 28.2972 293.107 27.1575 289.499C29.4095 287.778 32.7929 289.282 33.4093 289.691Z" fill="#E6856A"/>
<path d="M33.4668 289.195C34.0722 292.797 33.8174 297.929 32.9599 300.186C32.9599 300.186 30.7518 300.301 30.96 296.131C31.0148 295.047 30.8587 292.69 29.7847 291.904C26.478 289.721 25.9466 287.715 27.1602 286.072C28.7738 283.883 33.3407 286.107 33.4668 289.195Z" fill="#F7A58E"/>
<path d="M23.2373 299.038C25.0317 300.282 29.7767 302.693 30.5273 302.098C31.2752 301.504 27.4809 297.463 25.0317 296.929C22.5798 296.392 22.3195 298.403 23.2373 299.038Z" fill="#F7A58E"/>
</svg>
