<svg width="168" height="57" viewBox="0 0 168 57" fill="none" xmlns="http://www.w3.org/2000/svg">
<path d="M68.8896 31.104H72.5396C72.4663 32.3003 72.1367 33.3623 71.5508 34.29C70.973 35.2178 70.1632 35.9421 69.1216 36.4629C68.0881 36.9837 66.8429 37.2441 65.3862 37.2441C64.2469 37.2441 63.2256 37.0488 62.3223 36.6582C61.4189 36.2594 60.6458 35.6898 60.0029 34.9492C59.3682 34.2087 58.884 33.3135 58.5503 32.2637C58.2166 31.2139 58.0498 30.0379 58.0498 28.7358V27.5029C58.0498 26.2008 58.2207 25.0249 58.5625 23.9751C58.9124 22.9172 59.4089 22.0179 60.0518 21.2773C60.7028 20.5368 61.48 19.9671 62.3833 19.5684C63.2866 19.1696 64.2957 18.9702 65.4106 18.9702C66.8918 18.9702 68.141 19.2388 69.1582 19.7759C70.1836 20.313 70.9771 21.0535 71.5386 21.9976C72.1082 22.9416 72.45 24.0158 72.564 25.2202H68.9019C68.8612 24.5041 68.7188 23.8978 68.4746 23.4014C68.2305 22.8968 67.8602 22.5184 67.3638 22.2661C66.8755 22.0057 66.2244 21.8755 65.4106 21.8755C64.8003 21.8755 64.2673 21.9894 63.8115 22.2173C63.3558 22.4451 62.9733 22.791 62.6641 23.2549C62.3548 23.7188 62.1229 24.3047 61.9683 25.0127C61.8218 25.7126 61.7485 26.5345 61.7485 27.4785V28.7358C61.7485 29.6554 61.8177 30.4652 61.9561 31.165C62.0944 31.8568 62.306 32.4427 62.5908 32.9229C62.8838 33.3949 63.2581 33.7529 63.7139 33.9971C64.1777 34.2331 64.7352 34.3511 65.3862 34.3511C66.1512 34.3511 66.7819 34.229 67.2783 33.9849C67.7747 33.7407 68.1532 33.3786 68.4136 32.8984C68.6821 32.4183 68.8408 31.8201 68.8896 31.104ZM89.5439 27.6982V28.5405C89.5439 29.8914 89.3608 31.104 88.9946 32.1782C88.6284 33.2524 88.1117 34.168 87.4443 34.9248C86.777 35.6735 85.9795 36.2472 85.0518 36.646C84.1322 37.0448 83.1108 37.2441 81.9878 37.2441C80.8729 37.2441 79.8516 37.0448 78.9238 36.646C78.0042 36.2472 77.2067 35.6735 76.5312 34.9248C75.8558 34.168 75.3309 33.2524 74.9565 32.1782C74.5903 31.104 74.4072 29.8914 74.4072 28.5405V27.6982C74.4072 26.3392 74.5903 25.1266 74.9565 24.0605C75.3228 22.9863 75.8395 22.0708 76.5068 21.314C77.1823 20.5571 77.9798 19.9793 78.8994 19.5806C79.8271 19.1818 80.8485 18.9824 81.9634 18.9824C83.0864 18.9824 84.1077 19.1818 85.0273 19.5806C85.9551 19.9793 86.7526 20.5571 87.4199 21.314C88.0954 22.0708 88.6162 22.9863 88.9824 24.0605C89.3568 25.1266 89.5439 26.3392 89.5439 27.6982ZM85.8452 28.5405V27.6738C85.8452 26.7298 85.7598 25.8997 85.5889 25.1836C85.418 24.4674 85.1657 23.8652 84.832 23.377C84.4984 22.8887 84.0915 22.5225 83.6113 22.2783C83.1312 22.026 82.5819 21.8999 81.9634 21.8999C81.3449 21.8999 80.7956 22.026 80.3154 22.2783C79.8434 22.5225 79.4406 22.8887 79.1069 23.377C78.7814 23.8652 78.5332 24.4674 78.3623 25.1836C78.1914 25.8997 78.106 26.7298 78.106 27.6738V28.5405C78.106 29.4764 78.1914 30.3065 78.3623 31.0308C78.5332 31.7469 78.7855 32.3532 79.1191 32.8496C79.4528 33.3379 79.8597 33.7082 80.3398 33.9604C80.82 34.2127 81.3693 34.3389 81.9878 34.3389C82.6063 34.3389 83.1556 34.2127 83.6357 33.9604C84.1159 33.7082 84.5187 33.3379 84.8442 32.8496C85.1698 32.3532 85.418 31.7469 85.5889 31.0308C85.7598 30.3065 85.8452 29.4764 85.8452 28.5405ZM92.1807 19.2266H98.8091C100.168 19.2266 101.336 19.43 102.312 19.8369C103.297 20.2438 104.054 20.846 104.583 21.6436C105.112 22.4411 105.376 23.4217 105.376 24.5854C105.376 25.5376 105.214 26.3555 104.888 27.0391C104.571 27.7145 104.119 28.2801 103.533 28.7358C102.955 29.1834 102.276 29.5415 101.495 29.8101L100.335 30.4204H94.5732L94.5488 27.564H98.8335C99.4764 27.564 100.009 27.45 100.433 27.2222C100.856 26.9943 101.173 26.6769 101.385 26.27C101.604 25.8631 101.714 25.3911 101.714 24.854C101.714 24.2843 101.609 23.792 101.397 23.377C101.185 22.9619 100.864 22.6445 100.433 22.4248C100.001 22.2051 99.4601 22.0952 98.8091 22.0952H95.8428V37H92.1807V19.2266ZM102.117 37L98.0645 29.0776L101.934 29.0532L106.036 36.8291V37H102.117ZM108.196 19.2266H114.825C116.184 19.2266 117.352 19.43 118.328 19.8369C119.313 20.2438 120.07 20.846 120.599 21.6436C121.128 22.4411 121.392 23.4217 121.392 24.5854C121.392 25.5376 121.229 26.3555 120.904 27.0391C120.586 27.7145 120.135 28.2801 119.549 28.7358C118.971 29.1834 118.292 29.5415 117.51 29.8101L116.351 30.4204H110.589L110.564 27.564H114.849C115.492 27.564 116.025 27.45 116.448 27.2222C116.871 26.9943 117.189 26.6769 117.4 26.27C117.62 25.8631 117.73 25.3911 117.73 24.854C117.73 24.2843 117.624 23.792 117.413 23.377C117.201 22.9619 116.88 22.6445 116.448 22.4248C116.017 22.2051 115.476 22.0952 114.825 22.0952H111.858V37H108.196V19.2266ZM118.133 37L114.08 29.0776L117.95 29.0532L122.051 36.8291V37H118.133ZM131.426 19.2266V37H127.776V19.2266H131.426ZM136.895 19.2266V22.0952H122.393V19.2266H136.895ZM150.909 34.1436V37H141.448V34.1436H150.909ZM142.645 19.2266V37H138.982V19.2266H142.645ZM149.676 26.4653V29.2485H141.448V26.4653H149.676ZM150.896 19.2266V22.0952H141.448V19.2266H150.896ZM156.06 19.2266L159.405 25.4277L162.75 19.2266H166.937L161.773 28.04L167.071 37H162.847L159.405 30.6768L155.962 37H151.714L157.024 28.04L151.849 19.2266H156.06Z" fill="black"/>
<path d="M22.102 3.49816V39.0668C14.4199 43.7316 9.2983 38.2894 7.69775 34.9852C-3.82568 30.3205 0.0955458 20.991 3.49659 16.9093C-0.344541 8.0463 6.29741 5.44181 10.0985 4.66435C13.0993 -2.91585 20.5016 0.777063 22.102 3.49816Z" fill="url(#paint0_linear_359_12)"/>
<path d="M6.28434 17.3969C4.93185 13.1462 3.61794 5.22445 13.8196 7.543M20.1956 11.0209V5.2245C19.616 0.587344 9.18247 0.587335 12.0807 11.0209M20.1956 11.0209V19.1358M20.1956 11.0209C17.877 11.4073 13.7037 11.0209 15.5585 6.38377M20.1956 19.1358V30.7286M20.1956 19.1358C18.8431 19.5222 15.9064 19.8314 14.979 17.9765L14.7733 17.5727M20.1956 30.7286V35.9454C19.2222 39.8389 10.4841 38.4199 10.1091 32.7176M20.1956 30.7286C18.2634 30.149 14.3992 30.033 14.3992 34.2064M10.9214 28.9896C10.2709 30.3837 10.0375 31.6287 10.1091 32.7176M10.1091 32.7176C5.93599 31.2817 -0.90323 26.9029 5.12502 20.8747M10.3419 23.7729C9.18263 25.5118 7.90714 29.5693 14.3992 29.5693M13.2401 24.3525C14.5926 25.705 18.4569 25.5118 17.8772 20.8747M10.3419 16.8172C11.3787 17.6236 13.4046 18.3751 14.7733 17.5727M16.1383 13.3394C16.3255 15.7734 15.7001 17.0293 14.7733 17.5727M8.60297 16.8172C5.94619 16.2376 2.22694 20.8747 8.02334 23.1933" stroke="white" stroke-width="1.16327" stroke-linecap="round"/>
<path d="M24.4285 3.33544V38.9041C32.1106 43.5689 37.2322 38.1267 38.8328 34.8225C50.3562 30.1577 46.435 20.8282 43.0339 16.7466C46.8751 7.88358 40.2331 5.27909 36.432 4.50163C33.4312 -3.07857 26.0289 0.614343 24.4285 3.33544Z" fill="url(#paint1_linear_359_12)"/>
<path d="M40.2464 17.2343C41.5989 12.9836 42.9128 5.06185 32.7112 7.38041M26.3352 10.8583V5.0619C26.9148 0.424746 37.3483 0.424737 34.4501 10.8583M26.3352 10.8583V18.9732M26.3352 10.8583C28.6537 11.2447 32.8271 10.8583 30.9723 6.22117M26.3352 18.9732V30.566M26.3352 18.9732C27.6876 19.3596 30.6243 19.6688 31.5517 17.8139L31.7575 17.4101M26.3352 30.566V35.7828C27.3085 39.6763 36.0466 38.2573 36.4216 32.555M26.3352 30.566C28.2673 29.9864 32.1315 29.8704 32.1315 34.0438M35.6094 28.827C36.2599 30.2211 36.4932 31.4661 36.4216 32.555M36.4216 32.555C40.5948 31.1191 47.434 26.7403 41.4057 20.7121M36.1889 23.6103C37.3481 25.3492 38.6236 29.4067 32.1315 29.4067M33.2907 24.1899C31.9382 25.5424 28.0739 25.3492 28.6535 20.7121M36.1889 16.6546C35.152 17.461 33.1262 18.2125 31.7575 17.4101M30.3925 13.1768C30.2052 15.6108 30.8307 16.8667 31.7575 17.4101M37.9278 16.6546C40.5846 16.075 44.3038 20.7121 38.5074 23.0307" stroke="white" stroke-width="1.16327" stroke-linecap="round"/>
<rect x="16.2856" y="44.2041" width="13.9592" height="2.32653" fill="black"/>
<rect width="16.2857" height="1.16327" transform="matrix(1 0 0 -1 15.1223 48.8572)" fill="black"/>
<path d="M17.4487 51.1837H29.0814V53.5102C29.0814 55.4376 27.5189 57 25.5916 57H20.9385C19.0112 57 17.4487 55.4376 17.4487 53.5102V51.1837Z" fill="black"/>
<defs>
<linearGradient id="paint0_linear_359_12" x1="13.2762" y1="-0.418913" x2="12.6945" y2="39.7137" gradientUnits="userSpaceOnUse">
<stop stop-color="#0332A8"/>
<stop offset="0.708059" stop-color="#068081"/>
</linearGradient>
<linearGradient id="paint1_linear_359_12" x1="33.2544" y1="-0.581633" x2="33.836" y2="39.551" gradientUnits="userSpaceOnUse">
<stop stop-color="#0332A8"/>
<stop offset="0.708059" stop-color="#068081"/>
</linearGradient>
</defs>
</svg>
