<svg width="18" height="18" viewBox="0 0 18 18" fill="none" xmlns="http://www.w3.org/2000/svg">
<path fill-rule="evenodd" clip-rule="evenodd" d="M4.9375 0.292786C4.41973 0.292786 4 0.71252 4 1.23029V4.04279H1.1875C0.669734 4.04279 0.25 4.46251 0.25 4.98029V16.8553C0.25 17.3731 0.66973 17.7928 1.1875 17.7928H13.0625C13.5803 17.7928 14 17.3731 14 16.8553V14.0428H16.8125C17.3303 14.0428 17.75 13.6231 17.75 13.1053V1.23029C17.75 0.71252 17.3303 0.292786 16.8125 0.292786H4.9375ZM14 12.7928V4.98029C14 4.46251 13.5803 4.04279 13.0625 4.04279H5.25V1.54279H16.5V12.7928H14ZM1.5 16.5428V5.29279H12.75V16.5428H1.5Z" fill="#0084FF"/>
</svg>
